<svg xmlns="http://www.w3.org/2000/svg" width="28" height="28" aria-label="Logo">
  <g fill="none" fill-rule="nonzero">
    <path fill="#C7D2FE" d="M24.317 7.426a8.537 8.537 0 0 1-2.616 15.262 3.15 3.15 0 0 1-3.042-5.268l2.425-2.426a10.079 10.079 0 0 0 2.951-7.764c.088.064.186.128.282.196Z" />
    <path fill="#6366F1" d="M7.425 3.68a8.54 8.54 0 0 1 15.262 2.618 3.149 3.149 0 0 1-5.268 3.046L14.995 6.92a10.122 10.122 0 0 0-7.764-2.95c.062-.097.128-.195.194-.29Z" />
    <path fill="#C7D2FE" d="M3.68 20.572A8.54 8.54 0 0 1 6.296 5.31a3.148 3.148 0 0 1 3.05 5.268l-2.424 2.424a10.117 10.117 0 0 0-2.95 7.766c-.098-.064-.196-.128-.294-.196Z" />
    <path fill="#6366F1" d="M20.574 24.319A8.54 8.54 0 0 1 5.309 21.7a3.15 3.15 0 0 1 5.27-3.05l2.424 2.424a10.098 10.098 0 0 0 7.764 2.95 9.316 9.316 0 0 1-.193.295Z" />
  </g>
</svg>
